<?xml version="1.0" encoding="utf-8"?>


<!-- The icon can be used freely in both personal and commercial projects with no attribution required, but always appreciated. 
You may NOT sub-license, resell, rent, redistribute or otherwise transfer the icon without express written permission from iconmonstr.com -->


<!DOCTYPE svg PUBLIC "-//W3C//DTD SVG 1.1//EN" "http://www.w3.org/Graphics/SVG/1.1/DTD/svg11.dtd">

<svg version="1.1" xmlns="http://www.w3.org/2000/svg" xmlns:xlink="http://www.w3.org/1999/xlink" x="0px" y="0px"

	 width="512px" height="512px" viewBox="0 0 512 512" enable-background="new 0 0 512 512" xml:space="preserve">

<path id="stackoverflow-circle-icon" d="M256.417,50c-113.771,0-206,92.229-206,206s92.229,206,206,206s206-92.229,206-206

	S370.188,50,256.417,50z M226.209,189.817l84.822,50.029l-10.686,18.114l-84.827-50.033L226.209,189.817z M203.517,238.341

	l95.099,25.563l-5.457,20.312l-95.104-25.566L203.517,238.341z M194.086,282.315l98.06,9.035l-1.927,20.938l-98.063-9.025

	L194.086,282.315z M289.766,318.317l0.014,21.038l-98.481,0.045l-0.009-21.031L289.766,318.317z M323.241,372.652H160.512V270.168

	h16.823v85.982h129.168v-85.982h16.738V372.652z M314.453,236.96l-55.487-81.36l17.38-11.849l55.483,81.364L314.453,236.96z

	 M335.597,223.837l-16.845-97.025l20.725-3.597l16.847,97.025L335.597,223.837z"/>

</svg>

